<svg width="20" height="20" viewBox="0 0 20 20" fill="none" xmlns="http://www.w3.org/2000/svg">
<path d="M13.1338 3.2002C13.3492 3.28348 13.5526 3.38342 13.7432 3.5C13.9339 3.61667 14.1213 3.74167 14.3037 3.875L17.2637 2.625L20 7.375L17.4375 9.3252C17.454 9.44166 17.4629 9.55395 17.4629 9.66211V10.3379C17.4629 10.446 17.4462 10.5584 17.4131 10.6748L19.9746 12.625L17.2383 17.375L14.3037 16.125C14.1213 16.2583 13.9304 16.3834 13.7314 16.5C13.5324 16.6167 13.3328 16.7165 13.1338 16.7998L12.7363 20H7.26367L6.86523 16.7998C6.64979 16.7165 6.44646 16.6166 6.25586 16.5C6.06522 16.3834 5.87864 16.2583 5.69629 16.125L2.73633 17.375L0 12.625L2.5625 10.6748C2.54595 10.5583 2.53713 10.4461 2.53711 10.3379V9.66211C2.53713 9.55394 2.54595 9.44167 2.5625 9.3252L0 7.375L2.73633 2.625L5.69629 3.875C5.8787 3.74167 6.06956 3.61666 6.26855 3.5C6.46743 3.38341 6.66636 3.2835 6.86523 3.2002L7.26367 0H12.7363L13.1338 3.2002ZM8.68164 4.65039C8.16755 4.78372 7.69044 4.97897 7.25098 5.2373C6.81161 5.49558 6.40969 5.80824 6.04492 6.1748L3.58203 5.15039L2.6123 6.84961L4.75098 8.4502C4.6681 8.70012 4.6103 8.95028 4.57715 9.2002C4.544 9.45014 4.52734 9.71674 4.52734 10C4.52734 10.2667 4.54398 10.5254 4.57715 10.7754C4.61032 11.0253 4.6681 11.2755 4.75098 11.5254L2.6123 13.1504L3.58203 14.8496L6.04492 13.7998C6.40974 14.1831 6.81153 14.5044 7.25098 14.7627C7.69044 15.021 8.16755 15.2163 8.68164 15.3496L9.00488 18H10.9697L11.3184 15.3496C11.8324 15.2163 12.3096 15.021 12.749 14.7627C13.1884 14.5044 13.5903 14.1918 13.9551 13.8252L16.418 14.8496L17.3877 13.1504L15.249 11.5254C15.3319 11.2921 15.3897 11.0454 15.4229 10.7871C15.456 10.5289 15.4727 10.2665 15.4727 10C15.4727 9.73347 15.456 9.47109 15.4229 9.21289C15.3897 8.95456 15.3319 8.70794 15.249 8.47461L17.3877 6.84961L16.418 5.15039L13.9551 6.2002C13.5903 5.81693 13.1884 5.49562 12.749 5.2373C12.3096 4.979 11.8324 4.78372 11.3184 4.65039L10.9951 2H9.0293L8.68164 4.65039ZM10.0498 6.5C11.0116 6.50004 11.8328 6.8421 12.5127 7.52539C13.1924 8.20865 13.5322 9.03352 13.5322 10C13.5322 10.9665 13.1924 11.7914 12.5127 12.4746C11.8328 13.1579 11.0116 13.5 10.0498 13.5C9.07137 13.5 8.24585 13.1579 7.57422 12.4746C6.90282 11.7913 6.56738 10.9665 6.56738 10C6.56738 9.0335 6.90282 8.20865 7.57422 7.52539C8.24585 6.84206 9.07137 6.5 10.0498 6.5Z" fill="currentColor"/>
</svg>
