<svg width="52" height="52" viewBox="0 0 52 52" fill="none" xmlns="http://www.w3.org/2000/svg">
<title id="logo-title">Bogdanelo</title>
<path d="M51.908 1.78814e-06V30.492H44.692V5.698H31.47L32.218 1.78814e-06H51.908Z" fill="#C778DD"/>
<path d="M0.0920001 52V21.508H7.308V46.302H20.53L19.782 52H0.0920001Z" fill="#C778DD"/>
<path d="M31.316 33.849C31.316 32.4377 31.0357 31.326 30.475 30.514C29.9337 29.6827 29.1603 29.093 28.155 28.745C27.169 28.397 26.009 28.223 24.675 28.223H20.76V39.069H24.269C25.197 39.069 26.0767 39.0013 26.908 38.866C27.7587 38.7307 28.5127 38.4793 29.17 38.112C29.8467 37.7447 30.3687 37.2227 30.736 36.546C31.1227 35.85 31.316 34.951 31.316 33.849ZM29.808 17.029C29.808 15.4437 29.3053 14.303 28.3 13.607C27.314 12.8917 25.777 12.534 23.689 12.534H20.76V21.843H23.979C26.0283 21.843 27.5073 21.466 28.416 20.712C29.344 19.958 29.808 18.7303 29.808 17.029ZM41.118 34.226C41.118 36.546 40.6733 38.4697 39.784 39.997C38.8947 41.5243 37.6767 42.723 36.13 43.593C34.5833 44.463 32.8143 45.0817 30.823 45.449C28.851 45.8163 26.7727 46 24.588 46H11.248V5.806H23.979C26.0477 5.806 28.0003 5.98 29.837 6.328C31.693 6.65667 33.3363 7.21733 34.767 8.01C36.1977 8.78333 37.319 9.837 38.131 11.171C38.9623 12.4857 39.378 14.1193 39.378 16.072C39.378 17.6767 39.0397 19.0687 38.363 20.248C37.6863 21.408 36.7873 22.365 35.666 23.119C34.5447 23.8537 33.3267 24.3853 32.012 24.714C33.4427 24.946 34.854 25.4003 36.246 26.077C37.6573 26.7343 38.8173 27.7203 39.726 29.035C40.654 30.3497 41.118 32.08 41.118 34.226Z"  fill="#C778DD"/>
</svg>
